<svg width="57" height="52" viewBox="0 0 57 52" fill="none" xmlns="http://www.w3.org/2000/svg">
<path d="M38.5833 48.75V43.6667C38.5833 40.9703 37.5122 38.3844 35.6056 36.4777C33.699 34.5711 31.113 33.5 28.4167 33.5H13.1667C10.4703 33.5 7.88437 34.5711 5.97775 36.4777C4.07113 38.3844 3 40.9703 3 43.6667V48.75" stroke="white" stroke-width="5" stroke-linecap="round" stroke-linejoin="round"/>
<path d="M20.7917 23.3333C26.4066 23.3333 30.9583 18.7816 30.9583 13.1667C30.9583 7.55177 26.4066 3 20.7917 3C15.1768 3 10.625 7.55177 10.625 13.1667C10.625 18.7816 15.1768 23.3333 20.7917 23.3333Z" stroke="white" stroke-width="5" stroke-linecap="round" stroke-linejoin="round"/>
<path d="M46.2083 15.7083V30.9583" stroke="white" stroke-width="5" stroke-linecap="round" stroke-linejoin="round"/>
<path d="M53.8333 23.3333H38.5833" stroke="white" stroke-width="5" stroke-linecap="round" stroke-linejoin="round"/>
</svg>
