<?xml version="1.0" encoding="utf-8"?>
<!-- Generator: Adobe Illustrator 28.0.0, SVG Export Plug-In . SVG Version: 6.00 Build 0)  -->
<svg version="1.1" id="Calque_1" xmlns="http://www.w3.org/2000/svg" xmlns:xlink="http://www.w3.org/1999/xlink" x="0px" y="0px"
	 viewBox="0 0 595.3 841.9" style="enable-background:new 0 0 595.3 841.9;" xml:space="preserve">
<style type="text/css">
	.st0{fill:none;stroke:#020203;stroke-width:5;stroke-linecap:round;stroke-linejoin:round;}
	.st1{fill:none;stroke:url(#SVGID_1_);stroke-width:5;stroke-linecap:round;stroke-linejoin:round;}
	
		.st2{fill:none;stroke:url(#SVGID_00000009561100850498497160000008079238400101561760_);stroke-width:5;stroke-linecap:round;stroke-linejoin:round;}
	
		.st3{fill:none;stroke:url(#SVGID_00000164509915421020602120000007534234283275550360_);stroke-width:5;stroke-linecap:round;stroke-linejoin:round;}
</style>
<g>
	<path class="st0" d="M223.2,405.2c0-8.1,3.7-15.8,10.1-20.8l48.4-37.9c9.6-7.5,23-7.5,32.5,0l48.4,37.9c6.4,5,10.1,12.7,10.1,20.8
		v79.1c0,4.4-1.8,8.7-4.9,11.8c-3.1,3.1-7.3,4.9-11.8,4.9H239.8c-4.4,0-8.6-1.8-11.8-4.9c-3.1-3.1-4.9-7.4-4.9-11.8V405.2z"/>
	<path class="st0" d="M270.5,496.6h55"/>
	
		<linearGradient id="SVGID_1_" gradientUnits="userSpaceOnUse" x1="295.2498" y1="399.0516" x2="295.2498" y2="350.6616" gradientTransform="matrix(1 0 0 -1 0 844)">
		<stop  offset="0.4418" style="stop-color:#417843"/>
		<stop  offset="1" style="stop-color:#020203"/>
	</linearGradient>
	<path class="st1" d="M287,496.6c30.3-13.8,4.4-35.2,16.5-55"/>
	
		<linearGradient id="SVGID_00000176732124959717858450000004252486990607423904_" gradientUnits="userSpaceOnUse" x1="264.9576" y1="413.7132" x2="310.915" y2="343.0088" gradientTransform="matrix(1 0 0 -1 0 844)">
		<stop  offset="0" style="stop-color:#458148"/>
		<stop  offset="1" style="stop-color:#437A45"/>
	</linearGradient>
	
		<path style="fill:none;stroke:url(#SVGID_00000176732124959717858450000004252486990607423904_);stroke-width:5;stroke-linecap:round;stroke-linejoin:round;" d="
		M284.2,438.3c6.1,4.4,9.9,12.1,12.7,20.4c-11,2.2-19.3,2.2-26.4-1.7c-6.6-3.3-12.7-10.5-16.5-23.1
		C269.4,431.2,278.2,433.9,284.2,438.3z"/>
	
		<linearGradient id="SVGID_00000062884632310986362410000010709918290005070985_" gradientUnits="userSpaceOnUse" x1="324.4777" y1="431.2765" x2="295.1823" y2="351.5717" gradientTransform="matrix(1 0 0 -1 0 844)">
		<stop  offset="0" style="stop-color:#4E9050"/>
		<stop  offset="1" style="stop-color:#224223"/>
	</linearGradient>
	
		<path style="fill:none;stroke:url(#SVGID_00000062884632310986362410000010709918290005070985_);stroke-width:5;stroke-linecap:round;stroke-linejoin:round;" d="
		M309.6,419.6c-4.2,6.6-6.3,14.2-6.1,22c10.5-0.6,18.2-3.3,23.7-7.7c5.5-5.5,8.8-12.7,9.4-25.3C321.7,409.2,314.5,414.1,309.6,419.6
		z"/>
</g>
</svg>
