<?xml version="1.0" encoding="utf-8"?>
<!-- Generator: Adobe Illustrator 28.0.0, SVG Export Plug-In . SVG Version: 6.00 Build 0)  -->
<svg version="1.1" id="Calque_1" xmlns="http://www.w3.org/2000/svg" xmlns:xlink="http://www.w3.org/1999/xlink" x="0px" y="0px"
	 viewBox="0 0 595.3 841.9" style="enable-background:new 0 0 595.3 841.9;" xml:space="preserve">
<style type="text/css">
	.st0{fill:#020203;}
	.st1{fill:url(#SVGID_1_);}
</style>
<path class="st0" d="M373.9,463.5H222.1c-2.4,0-4.4-2-4.4-4.4v-42.8c0-2.4,2-4.4,4.4-4.4h49.1c2.4,0,4.4-2,4.4-4.4v-24.6
	c0-2.4,2-4.4,4.4-4.4h47.8c2.4,0,4.4,2,4.4,4.4v45.2c0,2.4,2,4.4,4.4,4.4h37.4c2.4,0,4.4,2,4.4,4.4v22.2
	C378.3,461.5,376.4,463.5,373.9,463.5z M226.1,459.5h143.8c2.4,0,4.4-2,4.4-4.4v-14.2c0-2.4-2-4.4-4.4-4.4h-37.4
	c-2.4,0-4.4-2-4.4-4.4v-45.2c0-2.4-2-4.4-4.4-4.4H284c-2.4,0-4.4,2-4.4,4.4v24.6c0,2.4-2,4.4-4.4,4.4h-49.1c-2.4,0-4.4,2-4.4,4.4
	v34.8C221.7,457.5,223.6,459.5,226.1,459.5z"/>
<linearGradient id="SVGID_1_" gradientUnits="userSpaceOnUse" x1="299.1867" y1="420.1552" x2="297.8337" y2="382.5062">
	<stop  offset="0" style="stop-color:#000000"/>
	<stop  offset="0.17" style="stop-color:#020402"/>
	<stop  offset="0.3379" style="stop-color:#09100A"/>
	<stop  offset="0.505" style="stop-color:#142416"/>
	<stop  offset="0.6716" style="stop-color:#243F27"/>
	<stop  offset="0.8363" style="stop-color:#38633D"/>
	<stop  offset="1" style="stop-color:#518E57"/>
</linearGradient>
<path class="st1" d="M299.6,395.3h-0.1l-6.7,3.6l-1-4l8.5-4.5h4.5v38.7h-5.1V395.3z"/>
</svg>
